<?xml version="1.0"?>
<svg xmlns="http://www.w3.org/2000/svg" xmlns:xlink="http://www.w3.org/1999/xlink" xmlns:svgjs="http://svgjs.com/svgjs" version="1.1" width="512" height="512" x="0" y="0" viewBox="0 0 512 512" style="enable-background:new 0 0 512 512" xml:space="preserve"><circle r="256" cx="256" cy="256" fill="#ffffff" shape="circle"/><g transform="matrix(0.7,0,0,0.7,76.80000000000001,76.80000000000001)"><g xmlns="http://www.w3.org/2000/svg"><path d="m452 0h-196l-196 180h392z" fill="#c6cfd5" data-original="#c6cfd5" style=""/><path d="m60 0h196v180h-196z" fill="#e3e7ea" data-original="#e3e7ea" style=""/><path d="m256 512h192.391c35.074 0 63.609-28.535 63.609-63.61v-2.644c0-7.596-1.343-15.056-3.989-22.173l-40.007-107.573-272.004-60z" fill="#4175df" data-original="#4175df" style=""/><path d="m512 186.253v-2.644c0-35.075-28.535-63.61-63.609-63.61h-192.391l-60 196h272.004l40.006-107.573c2.647-7.116 3.99-14.577 3.99-22.173z" fill="#4165cb" data-original="#4165cb" style=""/><path d="m88.009 256-81.388 164.132c-4.331 8.737-6.621 18.508-6.621 28.258 0 35.075 28.535 63.61 63.61 63.61h192.39v-196z" fill="#4086f4" data-original="#4086f4" style=""/><path d="m256 120h-192.39c-35.075 0-63.61 28.535-63.61 63.61 0 9.75 2.29 19.521 6.622 28.258l51.635 104.132h197.743z" fill="#4175df" data-original="#4175df" style=""/><path d="m120 45h30v30h-30z" fill="#ffffff" data-original="#ffffff" style=""/><path d="m362 45h30v30h-30z" fill="#ffffff" data-original="#ffffff" style=""/><path d="m326.5 316v121.061h30v-121.061l-15-20z" fill="#e3e7ea" data-original="#e3e7ea" style=""/><path d="m356.5 195.061h-60v30h30v90.939h30z" fill="#c6cfd5" data-original="#c6cfd5" style=""/><path d="m251.058 316.061c.025-.02.049-.041.073-.061l-21.352-10-21.279 10v15.061c20.953 0 38 17.047 38 38s-17.047 38-38 38c-18.854 0-35.033-14.05-37.632-32.68-.244-1.748-.368-3.538-.368-5.32h-30c0 3.164.22 6.348.655 9.465 4.657 33.37 33.609 58.535 67.345 58.535 37.495 0 68-30.505 68-68 0-21.403-9.938-40.526-25.442-53z" fill="#ffffff" data-original="#ffffff" style=""/><path d="m276.5 263.061c0-37.495-30.505-68-68-68-32.421 0-60.483 23.062-66.724 54.836l29.438 5.782c3.485-17.741 19.166-30.618 37.287-30.618 20.953 0 38 17.047 38 38s-17.047 38-38 38v14.939h42.631c15.461-12.475 25.368-31.571 25.368-52.939z" fill="#e3e7ea" data-original="#e3e7ea" style=""/></g></g></svg>
