<?xml version="1.0"?>
<svg xmlns="http://www.w3.org/2000/svg" xmlns:xlink="http://www.w3.org/1999/xlink" xmlns:svgjs="http://svgjs.com/svgjs" version="1.1" width="512" height="512" x="0" y="0" viewBox="0 0 512 512" style="enable-background:new 0 0 512 512" xml:space="preserve"><circle r="256" cx="256" cy="256" fill="#ffffff" shape="circle"/><g transform="matrix(0.7,0,0,0.7,76.79999885559084,76.80000000000001)">
<path xmlns="http://www.w3.org/2000/svg" style="" d="M483.886,246.991c-14.957-16.075-34.309-26.923-55.49-31.307  C421.901,144.472,361.853,88.5,288.977,88.5c-11.199,0-22.254,1.346-32.977,3.936l-90,165.532L256,423.5h151  c57.897,0,105-47.103,105-105C512,291.872,502.016,266.476,483.886,246.991z" fill="#009ad2" data-original="#009ad2"/>
<path xmlns="http://www.w3.org/2000/svg" style="" d="M212.747,111.06c-17.883,11.631-32.786,27.08-43.704,45.191c-8.819-3.129-18.154-4.751-27.59-4.751  c-42.042,0-76.84,31.61-81.874,72.313C23.573,241.128,0,278.012,0,318.5c0,57.897,47.103,105,105,105h151V92.436  C240.703,96.132,226.088,102.383,212.747,111.06z" fill="#00b8fa" data-original="#00b8fa"/>
<g xmlns="http://www.w3.org/2000/svg">
</g>
<g xmlns="http://www.w3.org/2000/svg">
</g>
<g xmlns="http://www.w3.org/2000/svg">
</g>
<g xmlns="http://www.w3.org/2000/svg">
</g>
<g xmlns="http://www.w3.org/2000/svg">
</g>
<g xmlns="http://www.w3.org/2000/svg">
</g>
<g xmlns="http://www.w3.org/2000/svg">
</g>
<g xmlns="http://www.w3.org/2000/svg">
</g>
<g xmlns="http://www.w3.org/2000/svg">
</g>
<g xmlns="http://www.w3.org/2000/svg">
</g>
<g xmlns="http://www.w3.org/2000/svg">
</g>
<g xmlns="http://www.w3.org/2000/svg">
</g>
<g xmlns="http://www.w3.org/2000/svg">
</g>
<g xmlns="http://www.w3.org/2000/svg">
</g>
<g xmlns="http://www.w3.org/2000/svg">
</g>
</g></svg>
