<?xml version="1.0" encoding="UTF-8"?>
<svg xmlns="http://www.w3.org/2000/svg" xmlns:xlink="http://www.w3.org/1999/xlink" width="50pt" height="50pt" viewBox="0 0 50 50" version="1.1">
<g id="surface7463868">
<path style=" stroke:none;fill-rule:nonzero;fill:rgb(6.27451%,63.137257%,81.568629%);fill-opacity:1;" d="M 25 50 C 11.191406 50 0 38.808594 0 25 C 0 11.191406 11.191406 0 25 0 C 38.808594 0 50 11.191406 50 25 C 50 38.808594 38.808594 50 25 50 Z M 25 50 "/>
<path style=" stroke:none;fill-rule:nonzero;fill:rgb(100%,100%,100%);fill-opacity:1;" d="M 27.597656 8.246094 C 27.582031 8.253906 27.566406 8.261719 27.554688 8.269531 L 8.796875 11.808594 C 8.476562 11.867188 8.246094 12.148438 8.25 12.476562 L 8.25 37.453125 C 8.246094 37.78125 8.476562 38.0625 8.796875 38.125 L 27.554688 41.722656 C 27.746094 41.761719 27.949219 41.710938 28.105469 41.585938 C 28.253906 41.460938 28.347656 41.273438 28.351562 41.074219 L 28.351562 35.046875 L 41.078125 35.046875 C 41.449219 35.046875 41.75 34.746094 41.75 34.375 L 41.75 15.617188 C 41.75 15.25 41.449219 14.945312 41.078125 14.945312 L 28.351562 14.945312 L 28.351562 8.917969 C 28.351562 8.722656 28.269531 8.539062 28.125 8.414062 C 27.980469 8.285156 27.785156 8.222656 27.597656 8.246094 Z M 27.011719 9.714844 L 27.011719 15.40625 C 26.96875 15.539062 26.96875 15.675781 27.011719 15.804688 L 27.011719 34.25 C 26.992188 34.339844 26.992188 34.433594 27.011719 34.523438 L 27.011719 40.28125 L 9.589844 36.910156 L 9.589844 13.019531 Z M 28.351562 16.285156 L 40.410156 16.285156 L 40.410156 33.707031 L 28.351562 33.707031 L 28.351562 31.695312 L 29.417969 31.695312 C 29.886719 31.628906 33.703125 26.742188 33.101562 26.273438 C 32.632812 25.804688 31.023438 28.402344 29.082031 29.8125 L 28.351562 29.8125 L 28.351562 25.332031 C 29.386719 26.023438 30.347656 26.492188 30.570312 26.273438 C 30.910156 25.929688 29.640625 25.050781 28.351562 23.84375 L 28.351562 20.179688 L 29.480469 20.179688 L 30.234375 20.851562 C 30.367188 20.984375 30.5 20.984375 30.632812 20.851562 L 31.15625 20.308594 C 31.289062 20.171875 31.289062 20.042969 31.15625 19.910156 L 29.625 18.359375 C 29.558594 18.292969 29.421875 18.234375 29.355469 18.234375 L 28.351562 18.234375 Z M 21.105469 18.171875 L 15.011719 18.839844 L 15.011719 30.964844 L 21.316406 31.570312 L 21.316406 29.078125 L 17.359375 28.890625 L 17.359375 26 L 20.855469 26.0625 L 20.855469 23.65625 L 17.359375 23.71875 L 17.359375 20.914062 L 21.105469 20.640625 Z M 33.917969 18.296875 C 33.449219 18.363281 29.699219 23.25 30.234375 23.71875 C 30.703125 24.1875 32.3125 21.589844 34.253906 20.179688 L 36.453125 20.179688 L 36.453125 22.714844 L 35.78125 23.382812 C 35.648438 23.519531 35.648438 23.648438 35.78125 23.78125 L 36.328125 24.328125 C 36.460938 24.460938 36.589844 24.460938 36.722656 24.328125 L 38.273438 22.777344 C 38.339844 22.710938 38.398438 22.59375 38.398438 22.527344 L 38.398438 18.757812 C 38.398438 18.492188 38.203125 18.296875 38 18.296875 Z M 32.996094 23.675781 C 32.933594 23.679688 32.863281 23.683594 32.832031 23.71875 C 32.363281 24.1875 35.042969 25.734375 36.453125 27.675781 L 36.453125 29.8125 L 33.917969 29.8125 L 33.164062 29.140625 C 33.03125 29.007812 32.902344 29.007812 32.765625 29.140625 L 32.242188 29.6875 C 32.109375 29.820312 32.109375 29.949219 32.242188 30.085938 L 33.773438 31.632812 C 33.839844 31.703125 33.976562 31.757812 34.042969 31.757812 L 37.9375 31.757812 C 38.140625 31.757812 38.335938 31.5625 38.335938 31.359375 L 38.335938 27.402344 C 38.335938 26.902344 33.984375 23.644531 32.996094 23.675781 Z M 32.996094 23.675781 "/>
</g>
</svg>
